<svg width="207" height="178" viewBox="0 0 207 178" fill="none" xmlns="http://www.w3.org/2000/svg">
  <path
    d="M0 83.2276V166.432L1.794 167.168C2.76 167.582 3.887 168.042 4.255 168.226C6.141 169.031 8.74 169.974 11.73 170.894C12.558 171.17 13.593 171.515 14.03 171.676C14.927 171.998 16.652 172.504 18.745 173.079C19.504 173.286 20.654 173.584 21.275 173.745C26.956 175.286 36.754 177.034 42.895 177.586C46.943 177.954 64.262 178.092 68.08 177.793C71.99 177.471 76.176 176.988 78.798 176.505C79.833 176.321 80.914 176.16 81.213 176.16C81.512 176.16 82.432 176.022 83.26 175.838C84.088 175.654 85.583 175.332 86.595 175.125C89.654 174.504 94.323 173.309 97.405 172.366C97.911 172.228 98.946 171.906 99.705 171.699C100.464 171.469 101.43 171.147 101.844 170.963C102.258 170.779 102.741 170.641 102.925 170.641C103.109 170.641 103.592 170.503 104.006 170.319C104.719 170.02 105.225 169.813 107.64 168.916C111.32 167.536 112.838 166.892 117.185 164.868C120.819 163.19 123.073 162.04 126.914 159.924C128.662 158.958 132.089 156.934 133.354 156.106C133.699 155.876 134.113 155.624 134.297 155.532C135.562 154.934 147.499 146.287 148.235 145.459C148.373 145.321 148.925 144.838 149.5 144.424C150.075 143.987 150.949 143.251 151.455 142.791C151.961 142.331 153.571 140.882 155.02 139.571C159.321 135.685 164.174 130.671 168.222 125.911C169.096 124.899 170.016 123.818 170.292 123.496C170.568 123.174 171.465 122.047 172.27 120.966C173.098 119.886 173.88 118.851 174.041 118.667C175.996 116.229 181.631 107.973 182.62 106.133C182.758 105.88 183.057 105.351 183.31 104.983C183.563 104.592 183.862 104.086 184 103.833C184.138 103.58 184.437 103.051 184.667 102.683C184.92 102.293 185.38 101.534 185.679 100.959C186.001 100.384 186.622 99.2568 187.082 98.4289C188.968 95.0023 192.096 88.517 193.545 84.9754C194.005 83.8256 194.488 82.6987 194.626 82.4687C194.764 82.2158 194.948 81.7558 195.04 81.4338C195.155 81.1119 195.454 80.261 195.73 79.5711C196.006 78.8811 196.305 78.0532 196.42 77.7313C196.535 77.4093 196.834 76.5814 197.11 75.8915C197.386 75.2015 197.685 74.3046 197.8 73.9367C197.915 73.5457 198.122 72.8788 198.283 72.4419C198.421 72.0049 198.674 71.269 198.835 70.832C199.364 69.3372 200.79 64.3238 201.595 61.1731C202.515 57.5855 202.791 56.2747 203.665 51.9282C204.332 48.5245 204.516 47.4437 204.7 45.9948C204.792 45.1669 204.999 43.7641 205.137 42.8902C205.574 40.0155 206.057 35.14 206.195 32.3574C206.333 29.5287 206.448 28.8847 206.793 29.1147C206.908 29.1837 207 25.5271 207 20.3527C207 15.1783 206.908 11.5217 206.793 11.5907C206.448 11.8207 206.333 11.1537 206.195 8.00309C206.103 6.32428 205.896 3.84056 205.689 2.46072L205.344 -8.11588e-06H102.672H0V83.2276Z"
    fill="#FBDF4B" />
</svg>